<svg width="136" height="197" viewBox="0 0 136 197" fill="none" xmlns="http://www.w3.org/2000/svg">
<path d="M119.074 83.9568V50.9088C119.074 23.2464 96.3072 0.47998 68.4 0.47998C40.4928 0.47998 17.7264 23.2464 17.7264 50.9088V83.9568C7.2 95.952 0.835205 111.619 0.835205 128.755C0.835205 165.965 30.9456 196.32 68.4 196.32C105.61 196.32 135.965 165.965 135.965 128.755C135.965 111.619 129.6 95.952 119.074 83.9568ZM82.1088 153.48C82.8432 155.928 80.8848 158.376 78.192 158.376H58.608C56.16 158.376 54.2016 155.928 54.6912 153.48L61.5456 127.042C56.4048 124.349 52.9776 118.718 53.4672 112.354C54.2016 105.01 60.0768 99.3792 67.4208 98.8896C75.9888 98.4 83.088 105.254 83.088 113.578C83.088 119.453 79.6608 124.594 75.0096 127.042L82.1088 153.48ZM98.7552 68.2896C89.6976 63.6384 79.1712 61.1904 68.4 61.1904C57.6288 61.1904 47.1024 63.8832 38.0448 68.2896V50.9088C38.0448 42.8304 41.2272 35.2416 47.1024 29.3664C52.9776 23.4912 60.5664 20.3088 68.6448 20.3088C76.7232 20.3088 84.312 23.4912 90.1872 29.3664C96.0624 35.2416 99.2448 42.8304 99.2448 50.9088V68.2896H98.7552Z" fill="#022B69"/>
</svg>
