<svg width="27" height="24" viewBox="0 0 27 24" fill="none" xmlns="http://www.w3.org/2000/svg">
<path d="M17.6667 18.2354C22.5759 18.2354 26.5555 14.2557 26.5555 9.34653C26.5555 4.43733 22.5759 0.457642 17.6667 0.457642C12.7575 0.457642 8.77777 4.43733 8.77777 9.34653C8.77777 14.2557 12.7575 18.2354 17.6667 18.2354Z" fill="#1AD5FE"/>
<path d="M1 7.21348V21.5902C1 22.1425 1.44772 22.5902 2 22.5902H20.9363" stroke="#363F41" stroke-width="2" stroke-linecap="round"/>
<path fill-rule="evenodd" clip-rule="evenodd" d="M8.38096 11.5688C8.95078 11.5688 9.41271 12.0307 9.41271 12.6005V19.4259C9.41271 19.9957 8.95078 20.4576 8.38096 20.4576C7.81114 20.4576 7.34921 19.9957 7.34921 19.4259V12.6005C7.34921 12.0307 7.81114 11.5688 8.38096 11.5688ZM12.5079 13.791C13.0778 13.791 13.5397 14.2529 13.5397 14.8228V19.4259C13.5397 19.9957 13.0778 20.4576 12.5079 20.4576C11.9381 20.4576 11.4762 19.9957 11.4762 19.4259V14.8228C11.4762 14.2529 11.9381 13.791 12.5079 13.791ZM4.25397 16.0132C4.82379 16.0132 5.28572 16.4751 5.28572 17.045V19.4259C5.28572 19.9957 4.82379 20.4576 4.25397 20.4576C3.68416 20.4576 3.22223 19.9957 3.22223 19.4259V17.045C3.22223 16.4751 3.68416 16.0132 4.25397 16.0132ZM16.6349 8.23542C17.2047 8.23542 17.6667 8.69735 17.6667 9.26717V19.4258C17.6667 19.9957 17.2047 20.4576 16.6349 20.4576C16.0651 20.4576 15.6032 19.9957 15.6032 19.4258V9.26717C15.6032 8.69735 16.0651 8.23542 16.6349 8.23542Z" fill="#363F41"/>
</svg>
