<svg width="28" height="19" viewBox="0 0 28 19" fill="none" xmlns="http://www.w3.org/2000/svg">
<path fill-rule="evenodd" clip-rule="evenodd" d="M19.9358 13.9071C19.4365 10.9334 16.7857 8.65764 13.5816 8.65764C10.3763 8.65764 7.72474 10.9352 7.22687 13.9106C11.2236 13.8637 16.6275 13.8625 19.9358 13.9071Z" fill="#1AD5FE" stroke="#363F41" stroke-width="2"/>
<path d="M1 17.8076H27" stroke="#363F41" stroke-width="2" stroke-linecap="round"/>
<path fill-rule="evenodd" clip-rule="evenodd" d="M13.8571 0.457642C14.5672 0.457642 15.1428 1.03328 15.1428 1.74336V3.97193C15.1428 4.68201 14.5672 5.25764 13.8571 5.25764C13.147 5.25764 12.5714 4.68201 12.5714 3.97193V1.74336C12.5714 1.03328 13.147 0.457642 13.8571 0.457642Z" fill="#363F41"/>
<path fill-rule="evenodd" clip-rule="evenodd" d="M24.7102 4.90618C25.2123 5.40828 25.2123 6.22235 24.7102 6.72445L23.1343 8.30029C22.6322 8.80239 21.8182 8.80239 21.3161 8.30029C20.8139 7.79819 20.8139 6.98412 21.3161 6.48201L22.8919 4.90618C23.394 4.40407 24.2081 4.40408 24.7102 4.90618Z" fill="#363F41"/>
<path fill-rule="evenodd" clip-rule="evenodd" d="M3.31606 4.90617C3.81816 4.40407 4.63223 4.40407 5.13433 4.90617L6.71017 6.48201C7.21227 6.98411 7.21227 7.79818 6.71017 8.30028C6.20807 8.80239 5.394 8.80239 4.8919 8.30028L3.31606 6.72444C2.81396 6.22234 2.81396 5.40827 3.31606 4.90617Z" fill="#363F41"/>
</svg>
