<svg width="170" height="58" viewBox="0 0 170 58" fill="none" xmlns="http://www.w3.org/2000/svg">
<g clip-path="url(#clip0_199_229)">
<path d="M6.07927 0H142.294C145.616 0 148.317 2.36423 148.317 5.27337V38.6714C148.317 41.5805 145.616 43.9447 142.294 43.9447H6.07927C2.75672 43.9447 0.0565186 41.5805 0.0565186 38.6714V5.27337C0.0565186 2.36423 2.75672 0 6.07927 0Z" fill="#022B69"/>
<path d="M33.507 21.8892C33.4796 18.6169 36.1852 17.0264 36.304 16.9533C34.7684 14.723 32.3919 14.4122 31.5601 14.3848C29.5675 14.1746 27.6297 15.5822 26.6151 15.5822C25.5822 15.5822 24.01 14.4122 22.3282 14.4396C20.1619 14.4762 18.1236 15.7284 17.0175 17.6845C14.7233 21.6606 16.4326 27.5106 18.6354 30.728C19.7414 32.3002 21.0211 34.0643 22.7121 34.0003C24.3574 33.9364 24.9789 32.9492 26.9624 32.9492C28.9368 32.9492 29.5126 34.0003 31.2311 33.9638C33.0043 33.9364 34.1103 32.3825 35.1798 30.792C36.4503 28.9913 36.9622 27.2089 36.9804 27.1175C36.9347 27.0993 33.5436 25.8013 33.507 21.8892ZM30.2622 12.2733C31.1488 11.1673 31.7521 9.65914 31.5875 8.12354C30.3079 8.17838 28.6991 9.01017 27.7759 10.0979C26.9624 11.0576 26.2312 12.6207 26.414 14.0923C27.8582 14.202 29.339 13.3611 30.2622 12.2733ZM57.3821 33.7718H55.0787L53.8173 29.8048H49.4298L48.2324 33.7718H45.993L50.3347 20.2713H53.0221L57.3821 33.7718ZM53.4425 28.1413L52.3 24.6222C52.1811 24.2565 51.9526 23.4156 51.6236 22.0811H51.5779C51.4407 22.657 51.2305 23.507 50.938 24.6222L49.8137 28.1413H53.4425ZM68.5427 28.7902C68.5427 30.4447 68.0948 31.7518 67.1899 32.7115C66.3855 33.5707 65.38 33.9912 64.1918 33.9912C62.903 33.9912 61.9798 33.5342 61.4131 32.611V37.7205H59.2468V27.2364C59.2468 26.1943 59.2193 25.134 59.1645 24.0372H61.0657L61.1845 25.5819H61.2211C61.9432 24.4211 63.0401 23.8361 64.5026 23.8361C65.6543 23.8361 66.6049 24.2931 67.3727 25.198C68.1588 26.1121 68.5427 27.3003 68.5427 28.7902ZM66.3398 28.8634C66.3398 27.9128 66.1296 27.1358 65.7 26.5234C65.2338 25.8836 64.6031 25.5636 63.817 25.5636C63.2869 25.5636 62.8024 25.7465 62.3637 26.0938C61.9341 26.4503 61.6416 26.9073 61.5136 27.4832C61.4496 27.7482 61.4131 27.9676 61.4131 28.1413V29.7683C61.4131 30.4721 61.6324 31.0754 62.062 31.5598C62.4916 32.0443 63.0583 32.2911 63.753 32.2911C64.5665 32.2911 65.1972 31.9711 65.6543 31.3496C66.1113 30.7189 66.3398 29.8962 66.3398 28.8634ZM79.7307 28.7902C79.7307 30.4447 79.2828 31.7518 78.3779 32.7115C77.5735 33.5707 76.568 33.9912 75.3798 33.9912C74.091 33.9912 73.1678 33.5342 72.601 32.611V37.7205H70.4347V27.2364C70.4347 26.1943 70.4073 25.134 70.3525 24.0372H72.2537L72.3725 25.5819H72.4091C73.1312 24.4211 74.2281 23.8361 75.6905 23.8361C76.8423 23.8361 77.7929 24.2931 78.5607 25.198C79.3468 26.1121 79.7307 27.3003 79.7307 28.7902ZM77.5278 28.8634C77.5278 27.9128 77.3176 27.1358 76.888 26.5234C76.4218 25.8836 75.7911 25.5636 75.005 25.5636C74.4749 25.5636 73.9904 25.7465 73.5517 26.0938C73.1221 26.4503 72.8387 26.9073 72.7016 27.4832C72.6376 27.7482 72.601 27.9676 72.601 28.1413V29.7683C72.601 30.4721 72.8204 31.0754 73.25 31.5598C73.6796 32.0443 74.2463 32.2911 74.941 32.2911C75.7545 32.2911 76.3944 31.9711 76.8423 31.3496C77.3084 30.7189 77.5278 29.8962 77.5278 28.8634ZM92.2532 29.9877C92.2532 31.1394 91.851 32.0717 91.0558 32.7938C90.1783 33.5799 88.9534 33.9729 87.3813 33.9729C85.9279 33.9729 84.7671 33.6896 83.8896 33.132L84.3923 31.3313C85.3429 31.8889 86.385 32.1722 87.5184 32.1722C88.3319 32.1722 88.9717 31.9894 89.4196 31.6238C89.8766 31.2582 90.1051 30.7646 90.1051 30.1522C90.1051 29.6038 89.9132 29.1467 89.5476 28.772C89.1728 28.3972 88.5513 28.0499 87.6829 27.7299C85.2972 26.8433 84.1181 25.5545 84.1181 23.8635C84.1181 22.7575 84.5386 21.8526 85.3704 21.1396C86.2021 20.4358 87.3081 20.0793 88.6884 20.0793C89.9132 20.0793 90.9369 20.2896 91.7504 20.7192L91.202 22.4741C90.4342 22.0628 89.575 21.8526 88.6061 21.8526C87.8474 21.8526 87.2442 22.0445 86.8146 22.4102C86.4581 22.7484 86.2753 23.1505 86.2753 23.635C86.2753 24.1651 86.4855 24.613 86.8968 24.9512C87.2533 25.2711 87.9114 25.6185 88.862 25.9932C90.0229 26.4594 90.8729 27.0078 91.4214 27.6385C91.979 28.2692 92.2532 29.0553 92.2532 29.9877ZM99.4193 25.6642H97.0337V30.3898C97.0337 31.5872 97.4541 32.1905 98.2951 32.1905C98.6789 32.1905 98.9989 32.154 99.2548 32.09L99.3188 33.7353C98.8892 33.8907 98.3316 33.9729 97.6369 33.9729C96.7777 33.9729 96.1196 33.7078 95.6352 33.1868C95.1507 32.6658 94.9131 31.7883 94.9131 30.5635V25.655H93.4963V24.0372H94.9131V22.2548L97.0337 21.6149V24.0372H99.4193V25.6642ZM110.15 28.8268C110.15 30.3259 109.721 31.5507 108.871 32.5104C107.975 33.4976 106.787 33.9912 105.306 33.9912C103.88 33.9912 102.737 33.5159 101.887 32.5744C101.037 31.6329 100.617 30.4355 100.617 28.9913C100.617 27.4832 101.055 26.2492 101.924 25.2894C102.801 24.3297 103.98 23.8452 105.461 23.8452C106.887 23.8452 108.039 24.3205 108.907 25.2711C109.739 26.1852 110.15 27.3735 110.15 28.8268ZM107.911 28.8725C107.911 27.9767 107.719 27.2181 107.335 26.5782C106.878 25.8013 106.229 25.4174 105.388 25.4174C104.52 25.4174 103.852 25.8013 103.405 26.5782C103.012 27.2181 102.829 27.995 102.829 28.9182C102.829 29.814 103.021 30.5818 103.405 31.2125C103.871 31.9894 104.529 32.3733 105.37 32.3733C106.192 32.3733 106.841 31.9803 107.317 31.1942C107.71 30.5361 107.911 29.7683 107.911 28.8725ZM117.189 25.9384C116.978 25.9018 116.75 25.8836 116.503 25.8836C115.744 25.8836 115.15 26.1669 114.739 26.7428C114.382 27.2455 114.2 27.8945 114.2 28.6623V33.7718H112.033V27.0993C112.033 25.975 112.015 24.9512 111.969 24.0372H113.852L113.934 25.9018H113.998C114.227 25.262 114.583 24.741 115.077 24.3571C115.561 24.0098 116.083 23.8361 116.64 23.8361C116.841 23.8361 117.024 23.8544 117.179 23.8726L117.189 25.9384ZM126.859 28.4429C126.859 28.8268 126.832 29.1559 126.777 29.4209H120.287C120.315 30.3807 120.625 31.1211 121.229 31.6238C121.777 32.0717 122.481 32.3002 123.349 32.3002C124.309 32.3002 125.186 32.1448 125.973 31.8432L126.311 33.3422C125.388 33.7444 124.3 33.9455 123.048 33.9455C121.539 33.9455 120.351 33.4976 119.492 32.611C118.633 31.7244 118.203 30.5269 118.203 29.037C118.203 27.5746 118.605 26.3497 119.41 25.3717C120.251 24.3297 121.384 23.8087 122.81 23.8087C124.208 23.8087 125.278 24.3297 125.991 25.3717C126.567 26.2126 126.859 27.2272 126.859 28.4429ZM124.793 27.8853C124.812 27.2455 124.665 26.6879 124.373 26.2218C123.998 25.6185 123.422 25.3169 122.655 25.3169C121.951 25.3169 121.375 25.6093 120.936 26.1943C120.58 26.6605 120.36 27.2272 120.296 27.8762L124.793 27.8853Z" fill="white"/>
<path d="M56.5539 12.2376C56.3066 10.69 55.0946 9.78549 53.5647 9.78549C51.6921 9.78549 50.3106 11.1882 50.3106 13.5025C50.3106 15.8168 51.685 17.2195 53.5647 17.2195C55.1547 17.2195 56.3172 16.2231 56.5539 14.7922L55.4515 14.7886C55.2642 15.7144 54.4869 16.2231 53.5718 16.2231C52.3316 16.2231 51.3953 15.2727 51.3953 13.5025C51.3953 11.7465 52.3281 10.7819 53.5753 10.7819C54.4975 10.7819 55.2713 11.3013 55.4515 12.2376H56.5539ZM60.0616 17.2301C61.5915 17.2301 62.5914 16.1101 62.5914 14.4318C62.5914 12.7429 61.5915 11.6228 60.0616 11.6228C58.5317 11.6228 57.5317 12.7429 57.5317 14.4318C57.5317 16.1101 58.5317 17.2301 60.0616 17.2301ZM60.0651 16.3433C59.0652 16.3433 58.5988 15.4706 58.5988 14.4282C58.5988 13.3894 59.0652 12.5061 60.0651 12.5061C61.058 12.5061 61.5244 13.3894 61.5244 14.4282C61.5244 15.4706 61.058 16.3433 60.0651 16.3433ZM63.7706 17.1206H64.8271V13.7746C64.8271 13.0432 65.3394 12.5344 65.9401 12.5344C66.5266 12.5344 66.9329 12.9231 66.9329 13.5131V17.1206H67.9859V13.6615C67.9859 13.0079 68.3851 12.5344 69.0741 12.5344C69.6324 12.5344 70.0917 12.8453 70.0917 13.5802V17.1206H71.1482V13.4813C71.1482 12.2411 70.4556 11.6228 69.4734 11.6228C68.6925 11.6228 68.106 11.9973 67.8445 12.5768H67.788C67.5513 11.9832 67.0531 11.6228 66.3288 11.6228C65.6115 11.6228 65.078 11.9797 64.8518 12.5768H64.7847V11.6935H63.7706V17.1206ZM72.5641 17.1206H73.6206V11.6935H72.5641V17.1206ZM73.0977 10.8561C73.4616 10.8561 73.7654 10.5734 73.7654 10.2272C73.7654 9.88089 73.4616 9.59469 73.0977 9.59469C72.7302 9.59469 72.4299 9.88089 72.4299 10.2272C72.4299 10.5734 72.7302 10.8561 73.0977 10.8561ZM76.0983 13.8982C76.0983 13.0326 76.6283 12.5379 77.3632 12.5379C78.0805 12.5379 78.5151 13.0079 78.5151 13.7958V17.1206H79.5715V13.6686C79.5715 12.3259 78.8331 11.6228 77.7236 11.6228C76.9074 11.6228 76.3739 12.0009 76.123 12.5768H76.0559V11.6935H75.0418V17.1206H76.0983V13.8982ZM83.2638 19.2582C84.6453 19.2582 85.7124 18.6258 85.7124 17.2407V11.6935H84.6771V12.5733H84.5994C84.4121 12.2376 84.0376 11.6228 83.0271 11.6228C81.7162 11.6228 80.7516 12.6581 80.7516 14.3858C80.7516 16.1172 81.7374 17.0393 83.02 17.0393C84.0164 17.0393 84.4015 16.4775 84.5923 16.1313H84.6595V17.1983C84.6595 18.0357 84.0765 18.4067 83.2744 18.4067C82.3946 18.4067 82.0519 17.9651 81.8646 17.6647L80.9566 18.0393C81.2428 18.6929 81.9671 19.2582 83.2638 19.2582ZM83.2532 16.1631C82.3098 16.1631 81.8187 15.4388 81.8187 14.3717C81.8187 13.3294 82.2992 12.5203 83.2532 12.5203C84.1754 12.5203 84.6701 13.2729 84.6701 14.3717C84.6701 15.4918 84.1648 16.1631 83.2532 16.1631ZM93.7939 11.7853H94.8468C94.815 10.6264 93.7904 9.78549 92.3205 9.78549C90.8683 9.78549 89.7554 10.6158 89.7554 11.8631C89.7554 12.8701 90.4761 13.4601 91.6386 13.7746L92.4937 14.0078C93.2674 14.2127 93.8646 14.4671 93.8646 15.1102C93.8646 15.8168 93.1897 16.2832 92.2605 16.2832C91.4195 16.2832 90.7199 15.9087 90.6563 15.1208H89.561C89.6317 16.4316 90.6457 17.2407 92.2675 17.2407C93.967 17.2407 94.9458 16.3468 94.9458 15.1208C94.9458 13.817 93.7833 13.3117 92.8647 13.0856L92.158 12.9019C91.5927 12.757 90.8401 12.492 90.8436 11.7995C90.8436 11.1847 91.4054 10.7289 92.2958 10.7289C93.1261 10.7289 93.7162 11.1175 93.7939 11.7853ZM98.4517 17.2301C99.9816 17.2301 100.982 16.1101 100.982 14.4318C100.982 12.7429 99.9816 11.6228 98.4517 11.6228C96.9218 11.6228 95.9218 12.7429 95.9218 14.4318C95.9218 16.1101 96.9218 17.2301 98.4517 17.2301ZM98.4552 16.3433C97.4553 16.3433 96.9889 15.4706 96.9889 14.4282C96.9889 13.3894 97.4553 12.5061 98.4552 12.5061C99.4481 12.5061 99.9145 13.3894 99.9145 14.4282C99.9145 15.4706 99.4481 16.3433 98.4552 16.3433ZM104.447 17.2301C105.977 17.2301 106.977 16.1101 106.977 14.4318C106.977 12.7429 105.977 11.6228 104.447 11.6228C102.917 11.6228 101.917 12.7429 101.917 14.4318C101.917 16.1101 102.917 17.2301 104.447 17.2301ZM104.45 16.3433C103.45 16.3433 102.984 15.4706 102.984 14.4282C102.984 13.3894 103.45 12.5061 104.45 12.5061C105.443 12.5061 105.91 13.3894 105.91 14.4282C105.91 15.4706 105.443 16.3433 104.45 16.3433ZM109.212 13.8982C109.212 13.0326 109.742 12.5379 110.477 12.5379C111.194 12.5379 111.629 13.0079 111.629 13.7958V17.1206H112.686V13.6686C112.686 12.3259 111.947 11.6228 110.838 11.6228C110.021 11.6228 109.488 12.0009 109.237 12.5768H109.17V11.6935H108.156V17.1206H109.212V13.8982ZM119.022 17.2301C120.552 17.2301 121.551 16.1101 121.551 14.4318C121.551 12.7429 120.552 11.6228 119.022 11.6228C117.492 11.6228 116.492 12.7429 116.492 14.4318C116.492 16.1101 117.492 17.2301 119.022 17.2301ZM119.025 16.3433C118.025 16.3433 117.559 15.4706 117.559 14.4282C117.559 13.3894 118.025 12.5061 119.025 12.5061C120.018 12.5061 120.484 13.3894 120.484 14.4282C120.484 15.4706 120.018 16.3433 119.025 16.3433ZM123.787 13.8982C123.787 13.0326 124.317 12.5379 125.052 12.5379C125.769 12.5379 126.204 13.0079 126.204 13.7958V17.1206H127.26V13.6686C127.26 12.3259 126.522 11.6228 125.412 11.6228C124.596 11.6228 124.063 12.0009 123.812 12.5768H123.745V11.6935H122.731V17.1206H123.787V13.8982Z" fill="white"/>
</g>
<defs>
<clipPath id="clip0_199_229">
<rect width="169.975" height="57.5195" fill="white" transform="translate(0.0251465)"/>
</clipPath>
</defs>
</svg>
