<svg width="50" height="36" viewBox="0 0 50 36" fill="none" xmlns="http://www.w3.org/2000/svg">
<path d="M49.5959 23.252C48.7119 17.324 46.7359 9.88797 42.3159 6.87197L44.1359 5.10397C44.8639 4.42797 45.0719 3.38797 44.7079 2.45197C44.3439 1.51597 43.4599 0.94397 42.4719 0.94397H31.9159C30.9279 0.94397 30.0439 1.51597 29.6799 2.45197C29.3159 3.38797 29.5239 4.37597 30.2519 5.10397L32.0719 6.87197C29.8879 8.37997 28.3279 10.928 27.1839 13.84C25.7279 13.164 23.6479 12.8 21.6199 12.8C17.8239 12.8 13.9759 14.048 13.9759 16.388V21.64C12.5199 20.808 10.2319 20.392 7.9959 20.392C4.1999 20.392 0.351898 21.64 0.351898 23.98V31.52C0.351898 33.86 4.1999 35.108 7.9959 35.108C10.7519 35.108 13.4559 34.484 14.8079 33.236C16.1599 34.484 18.9159 35.108 21.6199 35.108C25.4159 35.108 29.2639 33.86 29.2639 31.52V30.948C29.7839 31.156 30.3039 31.312 30.8239 31.364C32.8519 31.676 34.9839 31.78 37.1679 31.78C39.3519 31.78 41.5359 31.624 43.5119 31.364C45.4359 31.104 47.0999 30.116 48.2439 28.556C49.4399 26.996 49.9079 25.124 49.5959 23.252ZM31.3959 3.85597C31.0839 3.54397 31.1879 3.17997 31.2399 3.07597C31.2919 2.97197 31.4479 2.60797 31.9159 2.60797H42.5239C42.9919 2.60797 43.1479 2.97197 43.1999 3.07597C43.2519 3.17997 43.3559 3.54397 43.0439 3.85597L40.5479 6.29997C38.4159 7.02797 36.0759 7.02797 33.9439 6.29997L31.3959 3.85597ZM15.6399 26.216C17.0959 27.048 19.3839 27.464 21.6199 27.464C23.8559 27.464 26.0919 27.048 27.5999 26.216V27.672C27.5999 28.348 25.3119 29.544 21.6199 29.544C17.9279 29.544 15.6399 28.348 15.6399 27.724V26.216ZM21.6199 25.8C17.8759 25.8 15.6399 24.604 15.6399 23.928V22.472C17.0959 23.304 19.3839 23.72 21.6199 23.72C23.8559 23.72 26.0919 23.304 27.5999 22.472V23.928C27.5999 24.604 25.3119 25.8 21.6199 25.8ZM21.6199 14.464C25.3119 14.464 27.5999 15.66 27.5999 16.336C27.5999 17.012 25.3119 18.208 21.6199 18.208C17.9279 18.208 15.6399 17.012 15.6399 16.388C15.6399 15.764 17.8759 14.464 21.6199 14.464ZM15.6399 18.676C17.0959 19.508 19.3839 19.924 21.6199 19.924C23.8559 19.924 26.0919 19.508 27.5999 18.676V20.132C27.5999 20.808 25.3119 22.004 21.6199 22.004C17.9279 22.004 15.6399 20.808 15.6399 20.132V18.676ZM7.9439 22.056C11.6359 22.056 13.9239 23.252 13.9239 23.928C13.9239 24.604 11.6359 25.8 7.9439 25.8C4.2519 25.8 2.0159 24.604 2.0159 23.928C2.0159 23.252 4.2519 22.056 7.9439 22.056ZM2.0159 26.216C3.4719 27.048 5.7599 27.464 7.9959 27.464C10.2319 27.464 12.4679 27.048 13.9759 26.216V27.672C13.9759 28.348 11.6879 29.544 7.9959 29.544C4.3039 29.544 2.0159 28.348 2.0159 27.724V26.216ZM7.9439 33.34C4.2519 33.34 1.9639 32.144 1.9639 31.468V30.012C3.4199 30.844 5.7079 31.26 7.9439 31.26C10.1799 31.26 12.4159 30.844 13.9239 30.012V31.468C13.9239 32.144 11.6879 33.34 7.9439 33.34ZM21.6199 33.34C17.9279 33.34 15.6399 32.144 15.6399 31.468V30.012C17.0959 30.844 19.3839 31.26 21.6199 31.26C23.8559 31.26 26.0919 30.844 27.5999 30.012V31.468C27.5999 32.144 25.3119 33.34 21.6199 33.34ZM46.9439 27.516C46.0599 28.712 44.7599 29.44 43.3039 29.648C39.4559 30.22 34.9319 30.22 31.0839 29.648C30.4599 29.544 29.8359 29.336 29.2639 29.024V16.388C29.2639 15.816 29.0039 15.296 28.5879 14.828C29.7319 11.864 31.2919 9.21197 33.5279 7.96397C34.7239 8.32797 35.9199 8.53597 37.1679 8.53597C38.4159 8.53597 39.6639 8.32797 40.8079 7.96397C45.3319 10.46 47.2039 18.728 47.8799 23.512C48.1399 24.916 47.7759 26.372 46.9439 27.516Z" fill="white"/>
</svg>
