<svg width="149" height="44" viewBox="0 0 149 44" fill="none" xmlns="http://www.w3.org/2000/svg">
<g clip-path="url(#clip0_199_216)">
<path d="M142.77 43.9367H5.49117C2.41611 43.9367 0 41.5205 0 38.4455V5.49849C0 2.42344 2.41611 0.00732422 5.49117 0.00732422H142.77C145.845 0.00732422 148.262 2.42344 148.262 5.49849V38.4455C148.262 41.5205 145.845 43.9367 142.77 43.9367Z" fill="#022B69"/>
<path d="M142.77 0.885911C145.296 0.885911 147.383 2.97255 147.383 5.49849V38.4455C147.383 40.9714 145.296 43.0581 142.77 43.0581H5.49117C2.96523 43.0581 0.878587 40.9714 0.878587 38.4455V5.49849C0.878587 2.97255 2.96523 0.885911 5.49117 0.885911H142.77ZM142.77 0.00732422H5.49117C2.41611 0.00732422 0 2.53326 0 5.49849V38.4455C0 41.5205 2.41611 43.9367 5.49117 43.9367H142.77C145.845 43.9367 148.262 41.5205 148.262 38.4455V5.49849C148.262 2.53326 145.845 0.00732422 142.77 0.00732422Z" fill="#022B69"/>
<path d="M74.7898 23.9493C72.154 23.9493 70.0674 25.9261 70.0674 28.6717C70.0674 31.3075 72.154 33.3941 74.7898 33.3941C77.4255 33.3941 79.5122 31.4173 79.5122 28.6717C79.5122 25.8163 77.4255 23.9493 74.7898 23.9493ZM74.7898 31.4173C73.3621 31.4173 72.154 30.2092 72.154 28.5619C72.154 26.9145 73.3621 25.7065 74.7898 25.7065C76.2175 25.7065 77.4255 26.8047 77.4255 28.5619C77.4255 30.2092 76.2175 31.4173 74.7898 31.4173ZM64.5762 23.9493C61.9404 23.9493 59.8538 25.9261 59.8538 28.6717C59.8538 31.3075 61.9404 33.3941 64.5762 33.3941C67.2119 33.3941 69.2986 31.4173 69.2986 28.6717C69.2986 25.8163 67.2119 23.9493 64.5762 23.9493ZM64.5762 31.4173C63.1485 31.4173 61.9404 30.2092 61.9404 28.5619C61.9404 26.9145 63.1485 25.7065 64.5762 25.7065C66.0039 25.7065 67.2119 26.8047 67.2119 28.5619C67.2119 30.2092 66.0039 31.4173 64.5762 31.4173ZM52.3858 25.377V27.3538H57.1082C56.9984 28.4521 56.5591 29.3306 56.01 29.8798C55.351 30.5387 54.2528 31.3075 52.3858 31.3075C49.4206 31.3075 47.2241 29.0012 47.2241 26.0359C47.2241 23.0707 49.5304 20.7644 52.3858 20.7644C53.9233 20.7644 55.1314 21.4234 56.01 22.1921L57.4377 20.7644C56.2296 19.6662 54.6921 18.7876 52.4956 18.7876C48.542 18.7876 45.1375 22.0823 45.1375 26.0359C45.1375 29.9896 48.542 33.2843 52.4956 33.2843C54.6921 33.2843 56.2296 32.6253 57.5475 31.1976C58.8654 29.8798 59.3047 28.0128 59.3047 26.5851C59.3047 26.1458 59.3047 25.7065 59.1948 25.377H52.3858ZM102.246 26.9145C101.806 25.8163 100.708 23.9493 98.292 23.9493C95.8758 23.9493 93.899 25.8163 93.899 28.6717C93.899 31.3075 95.8758 33.3941 98.5116 33.3941C100.598 33.3941 101.916 32.0762 102.355 31.3075L100.818 30.2092C100.269 30.978 99.6098 31.5271 98.5116 31.5271C97.4134 31.5271 96.7544 31.0878 96.2053 30.0994L102.465 27.4636L102.246 26.9145ZM95.8758 28.4521C95.8758 26.6949 97.3035 25.7065 98.292 25.7065C99.0607 25.7065 99.8295 26.1458 100.049 26.6949L95.8758 28.4521ZM90.7141 32.9548H92.8008V19.2269H90.7141V32.9548ZM87.4194 24.9377C86.8703 24.3886 85.9917 23.8395 84.8935 23.8395C82.5872 23.8395 80.3907 25.9261 80.3907 28.5619C80.3907 31.1976 82.4774 33.1745 84.8935 33.1745C85.9917 33.1745 86.8703 32.6253 87.3096 32.0762H87.4194V32.7352C87.4194 34.4923 86.431 35.4807 84.8935 35.4807C83.6855 35.4807 82.8069 34.6022 82.5872 33.8334L80.83 34.6022C81.3792 35.8102 82.697 37.3477 85.0033 37.3477C87.4194 37.3477 89.3963 35.92 89.3963 32.5155V24.1689H87.4194V24.9377ZM85.0033 31.4173C83.5756 31.4173 82.3676 30.2092 82.3676 28.5619C82.3676 26.9145 83.5756 25.7065 85.0033 25.7065C86.431 25.7065 87.5293 26.9145 87.5293 28.5619C87.5293 30.2092 86.431 31.4173 85.0033 31.4173ZM111.8 19.2269H106.858V32.9548H108.945V27.7931H111.8C114.107 27.7931 116.303 26.1458 116.303 23.51C116.303 20.8742 114.107 19.2269 111.8 19.2269ZM111.91 25.8163H108.945V21.0939H111.91C113.448 21.0939 114.326 22.4118 114.326 23.4002C114.216 24.6082 113.338 25.8163 111.91 25.8163ZM124.54 23.8395C123.002 23.8395 121.465 24.4984 120.916 25.9261L122.783 26.6949C123.222 25.9261 123.881 25.7065 124.65 25.7065C125.748 25.7065 126.736 26.3654 126.846 27.4636V27.5735C126.517 27.3538 125.638 27.0244 124.759 27.0244C122.783 27.0244 120.806 28.1226 120.806 30.0994C120.806 31.9664 122.453 33.1745 124.21 33.1745C125.638 33.1745 126.297 32.5155 126.846 31.8566H126.956V32.9548H128.933V27.6833C128.713 25.2672 126.846 23.8395 124.54 23.8395ZM124.32 31.4173C123.661 31.4173 122.673 31.0878 122.673 30.2092C122.673 29.111 123.881 28.7815 124.869 28.7815C125.748 28.7815 126.187 29.0012 126.736 29.2208C126.517 30.5387 125.418 31.4173 124.32 31.4173ZM135.852 24.1689L133.545 30.0994H133.435L131.019 24.1689H128.823L132.447 32.5155L130.36 37.1281H132.447L138.048 24.1689H135.852ZM117.401 32.9548H119.488V19.2269H117.401V32.9548Z" fill="white"/>
<path d="M11.4216 8.24438C11.0921 8.57385 10.9823 9.12297 10.9823 9.78191V34.0529C10.9823 34.7118 11.2019 35.2609 11.5314 35.5904L11.6412 35.7002L25.2593 22.0821V21.8625L11.4216 8.24438Z" fill="url(#paint0_linear_199_216)"/>
<path d="M29.6522 26.6948L25.1494 22.1921V21.8626L29.6522 17.3599L29.762 17.4697L35.1433 20.5447C36.6809 21.4233 36.6809 22.851 35.1433 23.7296L29.6522 26.6948Z" fill="url(#paint1_linear_199_216)"/>
<path d="M29.7621 26.585L25.1495 21.9724L11.4216 35.7003C11.9707 36.2494 12.7395 36.2494 13.7279 35.8102L29.7621 26.585Z" fill="url(#paint2_linear_199_216)"/>
<path d="M29.7621 17.3597L13.7279 8.24432C12.7395 7.6952 11.9707 7.80502 11.4216 8.35414L25.1495 21.9722L29.7621 17.3597Z" fill="url(#paint3_linear_199_216)"/>
<path opacity="0.2" d="M29.6523 26.4751L13.7279 35.4806C12.8493 36.0297 12.0805 35.9199 11.5314 35.4806L11.4216 35.5904L11.5314 35.7003C12.0805 36.1396 12.8493 36.2494 13.7279 35.7003L29.6523 26.4751Z" fill="black"/>
<path opacity="0.2" d="M11.4216 35.4807C11.0921 35.1512 10.9823 34.6021 10.9823 33.9432V34.053C10.9823 34.7119 11.2019 35.261 11.5314 35.5905V35.4807H11.4216ZM35.1434 23.4001L29.6523 26.4752L29.7621 26.585L35.1434 23.5099C35.9122 23.0706 36.2417 22.5215 36.2417 21.9724C36.2417 22.5215 35.8024 22.9608 35.1434 23.4001Z" fill="black"/>
<path opacity="0.2" d="M13.7279 8.35422L35.1435 20.5446C35.8024 20.9839 36.2417 21.4232 36.2417 21.9723C36.2417 21.4232 35.9123 20.8741 35.1435 20.4348L13.7279 8.2444C12.1904 7.36581 10.9824 8.02475 10.9824 9.78193V9.89175C10.9824 8.2444 12.1904 7.47564 13.7279 8.35422Z" fill="white"/>
<path d="M53.79 10.7156C53.5615 9.28581 52.4418 8.45016 51.0284 8.45016C49.2983 8.45016 48.022 9.74608 48.022 11.8842C48.022 14.0223 49.2918 15.3182 51.0284 15.3182C52.4973 15.3182 53.5713 14.3977 53.79 13.0756L52.7715 13.0724C52.5985 13.9276 51.8804 14.3977 51.0349 14.3977C49.8892 14.3977 49.0241 13.5196 49.0241 11.8842C49.0241 10.2618 49.8859 9.37069 51.0382 9.37069C51.8902 9.37069 52.6051 9.85054 52.7715 10.7156H53.79ZM57.0306 15.328C58.444 15.328 59.3678 14.2932 59.3678 12.7427C59.3678 11.1824 58.444 10.1476 57.0306 10.1476C55.6172 10.1476 54.6934 11.1824 54.6934 12.7427C54.6934 14.2932 55.6172 15.328 57.0306 15.328ZM57.0339 14.5087C56.1101 14.5087 55.6792 13.7024 55.6792 12.7394C55.6792 11.7797 56.1101 10.9637 57.0339 10.9637C57.9511 10.9637 58.382 11.7797 58.382 12.7394C58.382 13.7024 57.9511 14.5087 57.0339 14.5087ZM60.4573 15.2268H61.4333V12.1355C61.4333 11.4598 61.9066 10.9898 62.4616 10.9898C63.0034 10.9898 63.3788 11.3488 63.3788 11.894V15.2268H64.3516V12.0311C64.3516 11.4272 64.7204 10.9898 65.357 10.9898C65.8727 10.9898 66.2971 11.277 66.2971 11.956V15.2268H67.2731V11.8646C67.2731 10.7188 66.6333 10.1476 65.7258 10.1476C65.0044 10.1476 64.4626 10.4936 64.221 11.0289H64.1688C63.9501 10.4805 63.4898 10.1476 62.8206 10.1476C62.158 10.1476 61.6651 10.4773 61.4562 11.0289H61.3941V10.2129H60.4573V15.2268ZM68.5813 15.2268H69.5573V10.2129H68.5813V15.2268ZM69.0742 9.43924C69.4104 9.43924 69.6911 9.17809 69.6911 8.85819C69.6911 8.53829 69.4104 8.27389 69.0742 8.27389C68.7347 8.27389 68.4572 8.53829 68.4572 8.85819C68.4572 9.17809 68.7347 9.43924 69.0742 9.43924ZM71.8464 12.2498C71.8464 11.45 72.336 10.993 73.015 10.993C73.6776 10.993 74.0791 11.4272 74.0791 12.1551V15.2268H75.0552V12.0376C75.0552 10.7972 74.3729 10.1476 73.3479 10.1476C72.5939 10.1476 72.101 10.4969 71.8692 11.0289H71.8072V10.2129H70.8703V15.2268H71.8464V12.2498ZM78.4663 17.2017C79.7427 17.2017 80.7285 16.6174 80.7285 15.3378V10.2129H79.772V11.0257H79.7002C79.5272 10.7156 79.1812 10.1476 78.2476 10.1476C77.0366 10.1476 76.1454 11.104 76.1454 12.7003C76.1454 14.2998 77.0562 15.1517 78.2411 15.1517C79.1616 15.1517 79.5174 14.6327 79.6937 14.3128H79.7557V15.2986C79.7557 16.0723 79.2171 16.415 78.4761 16.415C77.6633 16.415 77.3467 16.007 77.1737 15.7295L76.3348 16.0755C76.5992 16.6794 77.2683 17.2017 78.4663 17.2017ZM78.4565 14.3422C77.585 14.3422 77.1312 13.673 77.1312 12.6872C77.1312 11.7242 77.5752 10.9767 78.4565 10.9767C79.3085 10.9767 79.7655 11.672 79.7655 12.6872C79.7655 13.722 79.2987 14.3422 78.4565 14.3422ZM88.1947 10.2977H89.1675C89.1381 9.22706 88.1914 8.45016 86.8335 8.45016C85.4919 8.45016 84.4636 9.21726 84.4636 10.3696C84.4636 11.2999 85.1295 11.845 86.2035 12.1355L86.9934 12.351C87.7083 12.5403 88.26 12.7753 88.26 13.3694C88.26 14.0223 87.6365 14.4532 86.778 14.4532C86.0011 14.4532 85.3548 14.1072 85.296 13.3792H84.2841C84.3494 14.5903 85.2862 15.3378 86.7845 15.3378C88.3547 15.3378 89.2589 14.5119 89.2589 13.3792C89.2589 12.1747 88.1849 11.7079 87.3362 11.499L86.6833 11.3293C86.1611 11.1954 85.4658 10.9506 85.469 10.3108C85.469 9.74281 85.988 9.32172 86.8106 9.32172C87.5778 9.32172 88.1229 9.68079 88.1947 10.2977ZM92.4978 15.328C93.9113 15.328 94.8351 14.2932 94.8351 12.7427C94.8351 11.1824 93.9113 10.1476 92.4978 10.1476C91.0844 10.1476 90.1606 11.1824 90.1606 12.7427C90.1606 14.2932 91.0844 15.328 92.4978 15.328ZM92.5011 14.5087C91.5773 14.5087 91.1464 13.7024 91.1464 12.7394C91.1464 11.7797 91.5773 10.9637 92.5011 10.9637C93.4184 10.9637 93.8493 11.7797 93.8493 12.7394C93.8493 13.7024 93.4184 14.5087 92.5011 14.5087ZM98.0365 15.328C99.4499 15.328 100.374 14.2932 100.374 12.7427C100.374 11.1824 99.4499 10.1476 98.0365 10.1476C96.6231 10.1476 95.6993 11.1824 95.6993 12.7427C95.6993 14.2932 96.6231 15.328 98.0365 15.328ZM98.0398 14.5087C97.116 14.5087 96.6851 13.7024 96.6851 12.7394C96.6851 11.7797 97.116 10.9637 98.0398 10.9637C98.957 10.9637 99.3879 11.7797 99.3879 12.7394C99.3879 13.7024 98.957 14.5087 98.0398 14.5087ZM102.439 12.2498C102.439 11.45 102.929 10.993 103.608 10.993C104.27 10.993 104.672 11.4272 104.672 12.1551V15.2268H105.648V12.0376C105.648 10.7972 104.966 10.1476 103.941 10.1476C103.187 10.1476 102.694 10.4969 102.462 11.0289H102.4V10.2129H101.463V15.2268H102.439V12.2498ZM111.502 15.328C112.915 15.328 113.839 14.2932 113.839 12.7427C113.839 11.1824 112.915 10.1476 111.502 10.1476C110.088 10.1476 109.164 11.1824 109.164 12.7427C109.164 14.2932 110.088 15.328 111.502 15.328ZM111.505 14.5087C110.581 14.5087 110.15 13.7024 110.15 12.7394C110.15 11.7797 110.581 10.9637 111.505 10.9637C112.422 10.9637 112.853 11.7797 112.853 12.7394C112.853 13.7024 112.422 14.5087 111.505 14.5087ZM115.904 12.2498C115.904 11.45 116.394 10.993 117.073 10.993C117.736 10.993 118.137 11.4272 118.137 12.1551V15.2268H119.113V12.0376C119.113 10.7972 118.431 10.1476 117.406 10.1476C116.652 10.1476 116.159 10.4969 115.927 11.0289H115.865V10.2129H114.928V15.2268H115.904V12.2498Z" fill="white"/>
</g>
<defs>
<linearGradient id="paint0_linear_199_216" x1="23.9415" y1="9.57325" x2="5.5098" y2="28.0038" gradientUnits="userSpaceOnUse">
<stop stop-color="#00A0FF"/>
<stop offset="0.007" stop-color="#00A1FF"/>
<stop offset="0.26" stop-color="#00BEFF"/>
<stop offset="0.512" stop-color="#00D2FF"/>
<stop offset="0.76" stop-color="#00DFFF"/>
<stop offset="1" stop-color="#00E3FF"/>
</linearGradient>
<linearGradient id="paint1_linear_199_216" x1="37.1575" y1="21.9735" x2="10.5835" y2="21.9735" gradientUnits="userSpaceOnUse">
<stop stop-color="#FFE000"/>
<stop offset="0.409" stop-color="#FFBD00"/>
<stop offset="0.775" stop-color="#FFA500"/>
<stop offset="1" stop-color="#FF9C00"/>
</linearGradient>
<linearGradient id="paint2_linear_199_216" x1="27.2658" y1="24.494" x2="2.27219" y2="49.4876" gradientUnits="userSpaceOnUse">
<stop stop-color="#FF3A44"/>
<stop offset="1" stop-color="#C31162"/>
</linearGradient>
<linearGradient id="paint3_linear_199_216" x1="8.01375" y1="0.200855" x2="19.1751" y2="11.3622" gradientUnits="userSpaceOnUse">
<stop stop-color="#32A071"/>
<stop offset="0.069" stop-color="#2DA771"/>
<stop offset="0.476" stop-color="#15CF74"/>
<stop offset="0.801" stop-color="#06E775"/>
<stop offset="1" stop-color="#00F076"/>
</linearGradient>
<clipPath id="clip0_199_216">
<rect width="148.262" height="43.9447" fill="white"/>
</clipPath>
</defs>
</svg>
