<svg width="20" height="19" viewBox="0 0 20 19" fill="none" xmlns="http://www.w3.org/2000/svg">
<path d="M10.2969 7.21516C9.82344 7.21516 9.36063 7.34627 8.96697 7.59191C8.57332 7.83755 8.2665 8.18669 8.08532 8.59518C7.90414 9.00366 7.85674 9.45315 7.9491 9.88679C8.04147 10.3204 8.26945 10.7188 8.60423 11.0314C8.939 11.3441 9.36554 11.557 9.82989 11.6432C10.2942 11.7295 10.7755 11.6852 11.213 11.516C11.6504 11.3468 12.0242 11.0603 12.2873 10.6926C12.5503 10.325 12.6907 9.89281 12.6907 9.45067C12.6907 9.1571 12.6288 8.8664 12.5085 8.59518C12.3882 8.32395 12.2118 8.07751 11.9896 7.86992C11.7673 7.66234 11.5034 7.49767 11.213 7.38533C10.9225 7.27298 10.6112 7.21516 10.2969 7.21516ZM19.8817 5.00669C19.8766 4.31058 19.7393 3.62083 19.4763 2.9695C19.2825 2.49288 18.9828 2.06006 18.5968 1.69957C18.2108 1.33909 17.7473 1.05915 17.2369 0.878217C16.5395 0.632548 15.8009 0.504365 15.0555 0.499622C13.8103 0.436523 13.4436 0.436523 10.2969 0.436523C7.15022 0.436523 6.78343 0.436523 5.53828 0.499622C4.79288 0.504365 4.0543 0.632548 3.35684 0.878217C2.84649 1.05915 2.38301 1.33909 1.99701 1.69957C1.611 2.06006 1.31124 2.49288 1.1175 2.9695C0.854435 3.62083 0.717176 4.31058 0.712098 5.00669C0.644531 6.16952 0.644531 6.51206 0.644531 9.45067C0.644531 12.3893 0.644531 12.7318 0.712098 13.8946C0.722487 14.5932 0.859561 15.2851 1.1175 15.9409C1.31038 16.4153 1.60989 16.8456 1.99586 17.2028C2.38021 17.5655 2.84468 17.8454 3.35684 18.0231C4.0543 18.2688 4.79288 18.397 5.53828 18.4017C6.78343 18.4648 7.15022 18.4648 10.2969 18.4648C13.4436 18.4648 13.8103 18.4648 15.0555 18.4017C15.8009 18.397 16.5395 18.2688 17.2369 18.0231C17.7491 17.8454 18.2136 17.5655 18.5979 17.2028C18.9839 16.8456 19.2834 16.4153 19.4763 15.9409C19.7391 15.2863 19.8763 14.5937 19.8817 13.8946C19.9492 12.7318 19.9492 12.3893 19.9492 9.45067C19.9492 6.51206 19.9492 6.16952 19.8817 5.00669ZM17.43 12.218C17.399 12.7743 17.2719 13.3222 17.0535 13.8406C16.8662 14.273 16.5876 14.6657 16.2344 14.9956C15.8812 15.3254 15.4606 15.5856 14.9976 15.7606C14.4373 15.9531 13.8473 16.0596 13.2505 16.0761H7.34327C6.74649 16.0596 6.1565 15.9531 5.59619 15.7606C5.11753 15.5945 4.68528 15.3294 4.33173 14.9854C3.982 14.662 3.7119 14.2713 3.54024 13.8406C3.33325 13.3178 3.2223 12.7662 3.21206 12.209V9.45067V6.69234C3.2223 6.13511 3.33325 5.5835 3.54024 5.06078C3.71811 4.61377 4.00189 4.21009 4.37034 3.87993C4.71815 3.55508 5.13603 3.30311 5.59619 3.14077C6.1565 2.94823 6.74649 2.84169 7.34327 2.82527H13.2505C13.8473 2.84169 14.4373 2.94823 14.9976 3.14077C15.4762 3.30688 15.9085 3.57189 16.262 3.91598C16.6118 4.23936 16.8819 4.63002 17.0535 5.06078C17.2597 5.58404 17.3738 6.13502 17.3914 6.69234V9.45067C17.3914 11.3076 17.4589 11.4969 17.43 12.209V12.218ZM15.8856 5.51149C15.7707 5.22032 15.5895 4.95589 15.3545 4.73646C15.1196 4.51703 14.8364 4.34782 14.5246 4.24049C14.0965 4.10191 13.6456 4.03478 13.1926 4.04218H7.40118C6.94585 4.04634 6.49489 4.12568 6.06916 4.27655C5.76214 4.379 5.482 4.54131 5.24734 4.75268C5.01268 4.96405 4.82889 5.21964 4.70817 5.50247C4.568 5.90393 4.49952 6.3242 4.50547 6.74642V12.1549C4.51504 12.5797 4.59984 13 4.75644 13.3989C4.87136 13.69 5.05256 13.9545 5.28752 14.1739C5.52249 14.3933 5.80563 14.5625 6.11742 14.6699C6.52925 14.8113 6.96263 14.8904 7.40118 14.9042H13.1926C13.6479 14.9001 14.0989 14.8207 14.5246 14.6699C14.8364 14.5625 15.1196 14.3933 15.3545 14.1739C15.5895 13.9545 15.7707 13.69 15.8856 13.3989C16.0472 13.0013 16.1321 12.5801 16.1366 12.1549V9.45067V6.74642C16.1368 6.32077 16.0517 5.89884 15.8856 5.50247V5.51149ZM10.2969 12.8941C9.81313 12.8941 9.33413 12.8049 8.88732 12.6318C8.44051 12.4586 8.03467 12.2048 7.69305 11.885C7.35143 11.5651 7.08075 11.1854 6.8965 10.7677C6.71226 10.35 6.61807 9.90244 6.61934 9.45067C6.61934 8.76924 6.83584 8.10314 7.24142 7.53668C7.64701 6.97022 8.22344 6.52888 8.89775 6.26852C9.57206 6.00817 10.3139 5.94051 11.0294 6.0741C11.7449 6.2077 12.4019 6.53655 12.9172 7.01902C13.4325 7.50149 13.7829 8.11589 13.9241 8.78444C14.0652 9.45298 13.9909 10.1456 13.7103 10.7747C13.4297 11.4037 12.9556 11.9409 12.348 12.3181C11.7404 12.6954 11.0266 12.8959 10.2969 12.8941ZM14.1578 6.68333C13.9445 6.66223 13.747 6.56814 13.6035 6.41918C13.46 6.27023 13.3806 6.07694 13.3806 5.87656C13.3806 5.67618 13.46 5.48289 13.6035 5.33393C13.747 5.18498 13.9445 5.09089 14.1578 5.06979C14.3712 5.09089 14.5687 5.18498 14.7122 5.33393C14.8557 5.48289 14.9351 5.67618 14.9351 5.87656C14.9351 6.07694 14.8557 6.27023 14.7122 6.41918C14.5687 6.56814 14.3712 6.66223 14.1578 6.68333Z" fill="#F4F8FC"/>
</svg>
