<svg width="20" height="19" viewBox="0 0 20 19" fill="none" xmlns="http://www.w3.org/2000/svg">
<path d="M10.007 0.436523C4.67663 0.436523 0.354614 4.47277 0.354614 9.45067C0.354614 14.4286 4.67663 18.4648 10.007 18.4648C15.3373 18.4648 19.6593 14.4286 19.6593 9.45067C19.6593 4.47277 15.3373 0.436523 10.007 0.436523ZM14.6457 7.23134C14.6522 7.32591 14.6522 7.4245 14.6522 7.52108C14.6522 10.4748 12.2434 13.8773 7.84166 13.8773C6.48429 13.8773 5.22604 13.509 4.166 12.8752C4.35991 12.8954 4.5452 12.9034 4.74342 12.9034C5.86378 12.9034 6.89366 12.5493 7.71454 11.9497C6.66312 11.9296 5.77976 11.2857 5.47812 10.4004C5.84655 10.4507 6.17835 10.4507 6.55755 10.3601C6.01617 10.2574 5.52956 9.98283 5.1804 9.58303C4.83123 9.18323 4.64105 8.68287 4.64216 8.16696V8.13879C4.95888 8.30579 5.33161 8.40841 5.72158 8.42249C5.39375 8.21846 5.1249 7.94203 4.93886 7.61772C4.75282 7.29341 4.65535 6.93124 4.65509 6.56332C4.65509 6.14682 4.77143 5.76654 4.98042 5.43656C5.58133 6.12738 6.33117 6.69238 7.18121 7.09485C8.03125 7.49731 8.96247 7.72823 9.91433 7.77259C9.57606 6.25346 10.7912 5.02408 12.252 5.02408C12.9415 5.02408 13.562 5.2937 13.9993 5.72831C14.5401 5.63374 15.0572 5.4446 15.5183 5.19108C15.3395 5.70819 14.9646 6.14481 14.4669 6.42047C14.9495 6.37218 15.4149 6.24743 15.8458 6.07238C15.5205 6.51906 15.1132 6.91544 14.6457 7.23134Z" fill="#F4F8FC"/>
</svg>
